<svg xmlns="http://www.w3.org/2000/svg" width="1932" height="480" viewBox="0 0 1932 480" role="img" aria-labelledby="title desc">
  <title id="title">SuperSycophantic framework diagram</title>
  <desc id="desc">Framework diagram showing context-induced and trigger-induced sycophancy components, with context, verifiability, framing, trigger, temporal, and sycophancy-scale layers.</desc>

  <defs>
    <linearGradient id="bg" x1="0" y1="0" x2="0" y2="1">
      <stop offset="0%" stop-color="#edf2fb"/>
      <stop offset="100%" stop-color="#e1efef"/>
    </linearGradient>

    <radialGradient id="mistPurple" cx="50%" cy="50%" r="50%">
      <stop offset="0%" stop-color="#d9cbff" stop-opacity="0.95"/>
      <stop offset="100%" stop-color="#d9cbff" stop-opacity="0"/>
    </radialGradient>

    <radialGradient id="mistTeal" cx="50%" cy="50%" r="50%">
      <stop offset="0%" stop-color="#cce7e5" stop-opacity="0.9"/>
      <stop offset="100%" stop-color="#cce7e5" stop-opacity="0"/>
    </radialGradient>

    <linearGradient id="preBand" x1="0" y1="0" x2="1" y2="1">
      <stop offset="0%" stop-color="#e2e7fb" stop-opacity="0.95"/>
      <stop offset="100%" stop-color="#d9ece7" stop-opacity="0.88"/>
    </linearGradient>

    <linearGradient id="postBand" x1="0" y1="0" x2="1" y2="1">
      <stop offset="0%" stop-color="#e3edf6" stop-opacity="0.95"/>
      <stop offset="100%" stop-color="#e1e8fa" stop-opacity="0.88"/>
    </linearGradient>

    <linearGradient id="cardFill" x1="0" y1="0" x2="0" y2="1">
      <stop offset="0%" stop-color="#f5f8fd"/>
      <stop offset="100%" stop-color="#edf5f7"/>
    </linearGradient>

    <linearGradient id="endPillLeft" x1="0" y1="0" x2="1" y2="0">
      <stop offset="0%" stop-color="#dfe5ff"/>
      <stop offset="35%" stop-color="#d7f0f1"/>
      <stop offset="68%" stop-color="#f9e8bf"/>
      <stop offset="100%" stop-color="#eedcff"/>
    </linearGradient>

    <linearGradient id="endPillRight" x1="0" y1="0" x2="1" y2="0">
      <stop offset="0%" stop-color="#eedcff"/>
      <stop offset="32%" stop-color="#f9e8bf"/>
      <stop offset="65%" stop-color="#d7f0f1"/>
      <stop offset="100%" stop-color="#dfe5ff"/>
    </linearGradient>

    <filter id="shadow" x="-20%" y="-20%" width="140%" height="160%">
      <feDropShadow dx="0" dy="16" stdDeviation="18" flood-color="#2d4f67" flood-opacity="0.12"/>
    </filter>

    <filter id="softShadow" x="-20%" y="-20%" width="140%" height="160%">
      <feDropShadow dx="0" dy="8" stdDeviation="10" flood-color="#2d4f67" flood-opacity="0.08"/>
    </filter>

    <marker id="arrow" markerWidth="6" markerHeight="6" refX="5.1" refY="3" orient="auto">
      <path d="M 0.9 0.9 L 5.1 3 L 0.9 5.1" fill="none" stroke="#577794" stroke-width="1.35" stroke-linecap="round" stroke-linejoin="round"/>
    </marker>

    <g id="icon-stem" fill="none" stroke="#4a6aa4" stroke-width="2.2" stroke-linecap="round" stroke-linejoin="round">
      <circle cx="0" cy="0" r="5" fill="#4a6aa4" stroke="none"/>
      <ellipse cx="0" cy="0" rx="18" ry="8"/>
      <ellipse cx="0" cy="0" rx="18" ry="8" transform="rotate(60)"/>
      <ellipse cx="0" cy="0" rx="18" ry="8" transform="rotate(120)"/>
    </g>

    <g id="icon-med" fill="none" stroke="#d74c4c" stroke-linecap="round" stroke-linejoin="round">
      <circle cx="0" cy="0" r="17" stroke-width="2.3"/>
      <path d="M 0 -9 V 9" stroke-width="5.8"/>
      <path d="M -9 0 H 9" stroke-width="5.8"/>
    </g>

    <g id="icon-social" fill="none" stroke="#7c5ae6" stroke-width="2.3" stroke-linecap="round" stroke-linejoin="round">
      <circle cx="-11" cy="-5" r="5"/>
      <circle cx="0" cy="-10" r="6"/>
      <circle cx="12" cy="-4" r="5"/>
      <path d="M -20 12 C -19 5, -14 2, -8 2 C -2 2, 2 5, 3 12"/>
      <path d="M -10 14 C -9 5, -3 0, 4 0 C 11 0, 17 5, 18 14"/>
      <path d="M 2 12 C 3 5, 8 2, 14 2 C 20 2, 25 5, 26 12"/>
    </g>

    <g id="icon-humanities" fill="none" stroke="#5b8c6b" stroke-width="2.2" stroke-linecap="round" stroke-linejoin="round">
      <path d="M -18 -12 C -8 -14 -3 -12 0 -7 V 16 C -5 11 -10 10 -18 10 Z"/>
      <path d="M 18 -12 C 8 -14 3 -12 0 -7 V 16 C 5 11 10 10 18 10 Z"/>
      <path d="M 0 -7 V 16"/>
    </g>

    <g id="icon-tag-book" fill="none" stroke="#6b8295" stroke-width="1.9" stroke-linecap="round" stroke-linejoin="round">
      <path d="M -8 -6 C -4 -7 -2 -6 0 -4 V 8 C -2 6 -4 5 -8 5 Z"/>
      <path d="M 8 -6 C 4 -7 2 -6 0 -4 V 8 C 2 6 4 5 8 5 Z"/>
      <path d="M 0 -4 V 8"/>
    </g>

    <g id="icon-trigger-authority" fill="none" stroke-linecap="round" stroke-linejoin="round">
      <path d="M -14 -18 H 4 L 12 -10 V 18 H -14 Z" stroke="#5a7a97" stroke-width="2.4"/>
      <path d="M 4 -18 V -10 H 12" stroke="#5a7a97" stroke-width="2.4"/>
      <path d="M -8 -6 H 5 M -8 0 H 5 M -8 6 H 0" stroke="#5a7a97" stroke-width="2.4"/>
      <circle cx="10" cy="9" r="7" stroke="#4f78ea" stroke-width="2.4"/>
      <path d="M 7 9 L 9.6 11.5 L 13.4 6.8" stroke="#4f78ea" stroke-width="2.4"/>
      <path d="M 6 15 L 4 21 M 14 15 L 16 21" stroke="#4f78ea" stroke-width="2.4"/>
    </g>

    <g id="icon-trigger-social-proof" fill="none" stroke-linecap="round" stroke-linejoin="round">
      <circle cx="-12" cy="-5" r="4" stroke="#5a7a97" stroke-width="2.2"/>
      <circle cx="0" cy="-7" r="4.3" stroke="#9f52f0" stroke-width="2.2"/>
      <circle cx="12" cy="-5" r="4" stroke="#5a7a97" stroke-width="2.2"/>
      <path d="M -19 8 C -19 2 -16 0 -12 0 C -8 0 -5 2 -5 8" stroke="#5a7a97" stroke-width="2.2"/>
      <path d="M -7 7 C -7 1 -4 -1 0 -1 C 4 -1 7 1 7 7" stroke="#9f52f0" stroke-width="2.2"/>
      <path d="M 5 8 C 5 2 8 0 12 0 C 16 0 19 2 19 8" stroke="#5a7a97" stroke-width="2.2"/>
    </g>

    <g id="icon-trigger-consistency" fill="none" stroke-linecap="round" stroke-linejoin="round">
      <path d="M -10 7 A 12 12 0 0 1 6 -10" stroke="#5a7a97" stroke-width="2.8"/>
      <path d="M 2 -12 L 6 -10 L 5 -6" stroke="#5a7a97" stroke-width="2.8"/>
      <path d="M 10 -7 A 12 12 0 0 1 -6 10" stroke="#00b6a3" stroke-width="2.8"/>
      <path d="M -2 12 L -6 10 L -5 6" stroke="#00b6a3" stroke-width="2.8"/>
    </g>

    <g id="icon-trigger-reciprocity" fill="none" stroke-linecap="round" stroke-linejoin="round">
      <rect x="-16" y="1" width="32" height="17" rx="2.8" stroke="#5a7a97" stroke-width="2.4"/>
      <rect x="-18" y="-6" width="36" height="8" rx="2.8" stroke="#5a7a97" stroke-width="2.4"/>
      <path d="M 0 -18 V 18" stroke="#5bbd1f" stroke-width="2.4"/>
      <path d="M -12 -6 C -15 -11 -14 -15 -10 -15 C -5 -15 -2 -11 0 -6" stroke="#5bbd1f" stroke-width="2.4"/>
      <path d="M 12 -6 C 15 -11 14 -15 10 -15 C 5 -15 2 -11 0 -6" stroke="#5bbd1f" stroke-width="2.4"/>
    </g>

    <g id="icon-trigger-liking" fill="none" stroke-linecap="round" stroke-linejoin="round">
      <path d="M 0 -5 C -3 -10 -10 -10 -12 -4 C -14 1 -9 5 0 12 C 9 5 14 1 12 -4 C 10 -10 3 -10 0 -5 Z" stroke="#d127e4" stroke-width="2.4"/>
    </g>

    <g id="icon-trigger-scarcity" fill="none" stroke-linecap="round" stroke-linejoin="round">
      <path d="M -18 -11 H -12 L -8 6 H 12" stroke="#5a7a97" stroke-width="2.4"/>
      <path d="M -7 4 H 12 C 14 4 15 3 16 0 L 18 -9 H -5" stroke="#5a7a97" stroke-width="2.4"/>
      <circle cx="-1" cy="16" r="3.3" stroke="#5a7a97" stroke-width="2.4"/>
      <circle cx="11" cy="16" r="3.3" stroke="#5a7a97" stroke-width="2.4"/>
      <path d="M 0 -5 L 8 3 M 8 -5 L 0 3" stroke="#ef8610" stroke-width="2.8"/>
    </g>

    <g id="icon-trigger-unity" fill="none" stroke-linecap="round" stroke-linejoin="round">
      <circle cx="0" cy="-14" r="4.3" stroke="#c4aa00" stroke-width="2.4"/>
      <circle cx="-14" cy="0" r="4.3" stroke="#5a7a97" stroke-width="2.4"/>
      <circle cx="14" cy="0" r="4.3" stroke="#5a7a97" stroke-width="2.4"/>
      <circle cx="0" cy="14" r="4.3" stroke="#c4aa00" stroke-width="2.4"/>
      <path d="M -4 -13 A 18 18 0 0 0 -13 -4" stroke="#5a7a97" stroke-width="2.4"/>
      <path d="M 4 -13 A 18 18 0 0 1 13 -4" stroke="#c4aa00" stroke-width="2.4"/>
      <path d="M 13 4 A 18 18 0 0 1 4 13" stroke="#5a7a97" stroke-width="2.4"/>
      <path d="M -13 4 A 18 18 0 0 0 -4 13" stroke="#c4aa00" stroke-width="2.4"/>
    </g>

    <g id="icon-trigger-simple" fill="none" stroke-linecap="round" stroke-linejoin="round">
      <path d="M -18 -12 H 18 A 4 4 0 0 1 22 -8 V 8 A 4 4 0 0 1 18 12 H 2 L -8 18 V 12 H -18 A 4 4 0 0 1 -22 8 V -8 A 4 4 0 0 1 -18 -12 Z" stroke="#5a7a97" stroke-width="2.4"/>
      <path d="M -10 -3 H 10 M -10 4 H 6" stroke="#6e88cf" stroke-width="2.4"/>
    </g>

  </defs>

  <rect width="1932" height="480" fill="url(#bg)"/>

  <ellipse cx="190" cy="138" rx="250" ry="120" fill="url(#mistPurple)"/>
  <ellipse cx="910" cy="123" rx="220" ry="110" fill="url(#mistTeal)" opacity="0.6"/>
  <ellipse cx="1110" cy="123" rx="220" ry="110" fill="url(#mistPurple)" opacity="0.52"/>
  <ellipse cx="1810" cy="138" rx="250" ry="120" fill="url(#mistTeal)"/>
  <ellipse cx="180" cy="430" rx="240" ry="84" fill="url(#mistTeal)" opacity="0.38"/>
  <ellipse cx="1760" cy="430" rx="245" ry="86" fill="url(#mistPurple)" opacity="0.36"/>

  <rect x="100" y="68" width="900" height="396" rx="42" fill="url(#preBand)" stroke="#cad8ee" stroke-opacity="0.7"/>
  <rect x="1000" y="68" width="880" height="396" rx="42" fill="url(#postBand)" stroke="#c8d7ea" stroke-opacity="0.7"/>

  <g filter="url(#softShadow)" font-family="'Aptos','Segoe UI','Helvetica Neue',Arial,sans-serif" font-weight="800">
    <rect x="44" y="98" width="292" height="46" rx="23" fill="url(#endPillLeft)" stroke="#7a8fd6" stroke-width="2.2"/>
    <text x="190" y="127" text-anchor="middle" font-size="24.5" letter-spacing="1.1" fill="#111111">Context-induced</text>

    <rect x="1624" y="98" width="292" height="46" rx="23" fill="url(#endPillRight)" stroke="#7a8fd6" stroke-width="2.2"/>
    <text x="1770" y="127" text-anchor="middle" font-size="24.5" letter-spacing="1.1" fill="#111111">Trigger-induced</text>
  </g>

  <g fill="none" stroke="#5a7a97" stroke-width="3.2" stroke-linecap="round" stroke-linejoin="round" marker-end="url(#arrow)">
    <path d="M 876 290 C 938 290, 1026 290, 1080 290"/>
  </g>

  <g font-family="'Aptos','Segoe UI','Helvetica Neue',Arial,sans-serif" font-weight="800">
  </g>

  <g filter="url(#softShadow)" font-family="'Aptos','Segoe UI','Helvetica Neue',Arial,sans-serif" font-weight="800">
    <rect x="895" y="204" width="166" height="80" rx="24" fill="#ffffff" fill-opacity="0.42" stroke="#b8c8d8" stroke-width="1.5"/>

    <g transform="translate(929 230)">
      <image href="logos/openai.png" x="-15" y="-15" width="30" height="30" preserveAspectRatio="xMidYMid meet"/>
    </g>
    <g transform="translate(978 230)">
      <image href="logos/claude.png" x="-15" y="-15" width="30" height="30" preserveAspectRatio="xMidYMid meet"/>
    </g>
    <g transform="translate(1027 230)">
      <image href="logos/gemini.png" x="-15" y="-15" width="30" height="30" preserveAspectRatio="xMidYMid meet"/>
    </g>
    <g transform="translate(929 258)">
      <image href="logos/deepseek.png" x="-15" y="-15" width="30" height="30" preserveAspectRatio="xMidYMid meet"/>
    </g>
    <g transform="translate(978 258)">
      <image href="logos/qwen.png" x="-15" y="-15" width="30" height="30" preserveAspectRatio="xMidYMid meet"/>
    </g>
    <g transform="translate(1027 258)">
      <image href="logos/llama.svg" x="-15" y="-15" width="30" height="30" preserveAspectRatio="xMidYMid meet"/>
    </g>

    <image href="logo.png" x="911" y="296" width="134" height="142" preserveAspectRatio="none"/>
  </g>

  <!-- Context Layer -->
  <g transform="translate(110 208) scale(0.66)" filter="url(#shadow)">
    <rect width="380" height="236" rx="32" fill="url(#cardFill)" stroke="#5f7a8f" stroke-width="2.3"/>
    <g font-family="'Aptos','Segoe UI','Helvetica Neue',Arial,sans-serif" font-weight="700" fill="#111111">
      <rect x="18" y="16" width="164" height="92" rx="22" fill="#cfe0ff" stroke="#4f78ea" stroke-width="1.9"/>
      <use href="#icon-stem" transform="translate(100 40) scale(1.05)"/>
      <text x="100" y="82" text-anchor="middle" font-size="26" dominant-baseline="middle">STEM</text>

      <rect x="198" y="16" width="164" height="92" rx="22" fill="#ffd6d6" stroke="#e15454" stroke-width="1.9"/>
      <use href="#icon-med" transform="translate(280 40) scale(1.05)"/>
      <text x="280" y="82" text-anchor="middle" font-size="23" dominant-baseline="middle">Health/Med</text>

      <rect x="18" y="128" width="164" height="92" rx="22" fill="#ead2ff" stroke="#9f52f0" stroke-width="1.9"/>
      <use href="#icon-social" transform="translate(100 152) scale(1.05)"/>
      <text x="100" y="194" text-anchor="middle" font-size="21.2" dominant-baseline="middle">Social Science</text>

      <rect x="198" y="128" width="164" height="92" rx="22" fill="#e6f5c7" stroke="#8fbe2e" stroke-width="1.9"/>
      <use href="#icon-humanities" transform="translate(280 154) scale(1.05)"/>
      <text x="280" y="194" text-anchor="middle" font-size="23.8" dominant-baseline="middle">Humanities</text>
    </g>
  </g>

  <!-- Verifiability -->
  <g transform="translate(365 208) scale(0.66)" filter="url(#shadow)">
    <rect width="380" height="236" rx="32" fill="url(#cardFill)" stroke="#5f7a8f" stroke-width="2.3"/>
    <g font-family="'Aptos','Segoe UI','Helvetica Neue',Arial,sans-serif" font-weight="700" fill="#111111">
      <rect x="24" y="30" width="332" height="78" rx="22" fill="#d4f0e1" stroke="#4ea887" stroke-width="1.9"/>
      <text x="190" y="58" text-anchor="middle" font-size="25" fill="#111111">With</text>
      <text x="190" y="82" text-anchor="middle" font-size="35" dominant-baseline="middle">Ground Truth</text>

      <rect x="24" y="128" width="332" height="78" rx="22" fill="#e2d8ff" stroke="#7f66e0" stroke-width="1.9"/>
      <text x="190" y="156" text-anchor="middle" font-size="25" fill="#111111">Without</text>
      <text x="190" y="180" text-anchor="middle" font-size="35" dominant-baseline="middle">Ground Truth</text>
    </g>
  </g>

  <!-- Framing Layer -->
  <g transform="translate(620 208) scale(0.66)" filter="url(#shadow)">
    <rect width="380" height="236" rx="32" fill="url(#cardFill)" stroke="#5f7a8f" stroke-width="2.3"/>
    <g font-family="'Aptos','Segoe UI','Helvetica Neue',Arial,sans-serif" font-weight="700" fill="#111111">
      <rect x="18" y="18" width="164" height="58" rx="18" fill="#d7e4ff" stroke="#5c83cf" stroke-width="1.9"/>
      <text x="100" y="47" text-anchor="middle" font-size="26" dominant-baseline="middle">Identity</text>

      <rect x="198" y="18" width="164" height="58" rx="18" fill="#e7dbff" stroke="#8b6ae1" stroke-width="1.9"/>
      <text x="280" y="47" text-anchor="middle" font-size="22" dominant-baseline="middle">Stated belief</text>

      <rect x="18" y="90" width="164" height="58" rx="18" fill="#d6f0e5" stroke="#4da38b" stroke-width="1.9"/>
      <text x="100" y="119" text-anchor="middle" font-size="28" dominant-baseline="middle">Affect</text>

      <rect x="198" y="90" width="164" height="58" rx="18" fill="#ffe0d5" stroke="#d8865a" stroke-width="1.9"/>
      <text x="280" y="119" text-anchor="middle" font-size="22.5" dominant-baseline="middle">Personal stake</text>

      <rect x="18" y="162" width="344" height="58" rx="18" fill="#e8f3cd" stroke="#95b54a" stroke-width="1.9"/>
      <text x="190" y="191" text-anchor="middle" font-size="25" dominant-baseline="middle">Self-presentation</text>
    </g>
  </g>

  <!-- Trigger Layer -->
  <g transform="translate(1085 208) scale(0.66)" filter="url(#shadow)">
    <rect width="380" height="236" rx="32" fill="url(#cardFill)" stroke="#5f7a8f" stroke-width="2.3"/>
    <g font-family="'Aptos','Segoe UI','Helvetica Neue',Arial,sans-serif" font-weight="700" text-anchor="middle">
      <g transform="translate(60 56)">
        <use href="#icon-trigger-authority" transform="scale(1.24)"/>
        <text x="0" y="44" font-size="21.8" fill="#111111">authority</text>
      </g>

      <g transform="translate(146 56)">
        <use href="#icon-trigger-social-proof" transform="scale(1.24)"/>
        <text x="0" y="42" font-size="20.4" fill="#111111">
          <tspan x="0" dy="0">social</tspan>
          <tspan x="0" dy="16">proof</tspan>
        </text>
      </g>

      <g transform="translate(232 56)">
        <use href="#icon-trigger-consistency" transform="scale(1.22)"/>
        <text x="0" y="44" font-size="20.2" fill="#111111">consistency</text>
      </g>

      <g transform="translate(318 56)">
        <use href="#icon-trigger-reciprocity" transform="scale(1.26)"/>
        <text x="0" y="44" font-size="20.4" fill="#111111">reciprocity</text>
      </g>

      <g transform="translate(60 156)">
        <use href="#icon-trigger-liking" transform="scale(1.24)"/>
        <text x="0" y="44" font-size="22" fill="#111111">liking</text>
      </g>

      <g transform="translate(146 156)">
        <use href="#icon-trigger-scarcity" transform="scale(1.24)"/>
        <text x="0" y="44" font-size="21.2" fill="#111111">scarcity</text>
      </g>

      <g transform="translate(232 156)">
        <use href="#icon-trigger-unity" transform="scale(1.24)"/>
        <text x="0" y="44" font-size="22" fill="#111111">unity</text>
      </g>

      <g transform="translate(318 156)">
        <use href="#icon-trigger-simple" transform="scale(1.18)"/>
        <text x="0" y="42" font-size="19.8" fill="#111111">
          <tspan x="0" dy="0">simple</tspan>
          <tspan x="0" dy="16">baseline</tspan>
        </text>
      </g>
    </g>
  </g>

  <!-- Social Sycophancy Scale -->
  <g transform="translate(1595 208) scale(0.66)" filter="url(#shadow)">
    <rect width="380" height="236" rx="32" fill="url(#cardFill)" stroke="#5f7a8f" stroke-width="2.3"/>
    <g font-family="'Aptos','Segoe UI','Helvetica Neue',Arial,sans-serif" font-weight="700" fill="#111111">
      <rect x="24" y="24" width="332" height="58" rx="18" fill="#cceee4" stroke="#43a18f" stroke-width="1.9"/>
      <text x="190" y="53" text-anchor="middle" font-size="27.5" dominant-baseline="middle">Uncritical Agreement</text>

      <rect x="24" y="90" width="332" height="58" rx="18" fill="#ddd6ff" stroke="#765fda" stroke-width="1.9"/>
      <text x="190" y="119" text-anchor="middle" font-size="28" dominant-baseline="middle">Obsequiousness</text>

      <rect x="24" y="156" width="332" height="58" rx="18" fill="#d0e4ff" stroke="#5d8fd0" stroke-width="1.9"/>
      <text x="190" y="185" text-anchor="middle" font-size="30" dominant-baseline="middle">Excitement</text>
    </g>
  </g>

  <!-- Evaluation -->
  <g transform="translate(1340 208) scale(0.66)" filter="url(#shadow)">
    <rect width="404" height="236" rx="32" fill="url(#cardFill)" stroke="#5f7a8f" stroke-width="2.3"/>
    <g font-family="'Aptos','Segoe UI','Helvetica Neue',Arial,sans-serif" font-weight="700" fill="#111111">
      <rect x="24" y="22" width="356" height="56" rx="18" fill="#e2ecff" stroke="#6c8bd0" stroke-width="1.8"/>
      <rect x="50" y="36" width="26" height="18" rx="9" fill="#a8bef9"/>
      <rect x="88" y="36" width="26" height="18" rx="9" fill="#779bf3"/>
      <rect x="126" y="36" width="26" height="18" rx="9" fill="#4a7cf0"/>
      <path d="M 76 45 L 88 45" fill="none" stroke="#5a7a97" stroke-width="2" marker-end="url(#arrow)"/>
      <path d="M 114 45 L 126 45" fill="none" stroke="#5a7a97" stroke-width="2" marker-end="url(#arrow)"/>
      <text x="274" y="50" text-anchor="middle" font-size="24" dominant-baseline="middle">Simple repetition</text>

      <rect x="24" y="90" width="356" height="56" rx="18" fill="#ebe4ff" stroke="#8a75dd" stroke-width="1.8"/>
      <rect x="46" y="104" width="30" height="18" rx="9" fill="#4a7cf0"/>
      <rect x="88" y="104" width="30" height="18" rx="9" fill="#9d58f4"/>
      <rect x="130" y="104" width="30" height="18" rx="9" fill="#4bbd3e"/>
      <path d="M 76 113 L 88 113" fill="none" stroke="#5a7a97" stroke-width="2" marker-end="url(#arrow)"/>
      <path d="M 118 113 L 130 113" fill="none" stroke="#5a7a97" stroke-width="2" marker-end="url(#arrow)"/>
      <text x="274" y="118" text-anchor="middle" font-size="24" dominant-baseline="middle">Combined triggers</text>

      <rect x="24" y="158" width="356" height="56" rx="18" fill="#dff4ed" stroke="#58a795" stroke-width="1.8"/>
      <rect x="46" y="174" width="22" height="14" rx="7" fill="#91e9de"/>
      <rect x="84" y="171" width="28" height="20" rx="10" fill="#4fe0cf"/>
      <rect x="128" y="167" width="36" height="28" rx="14" fill="#0fc4b5"/>
      <path d="M 68 181 L 84 181" fill="none" stroke="#5a7a97" stroke-width="2" marker-end="url(#arrow)"/>
      <path d="M 112 181 L 128 181" fill="none" stroke="#5a7a97" stroke-width="2" marker-end="url(#arrow)"/>
      <text x="274" y="186" text-anchor="middle" font-size="24" dominant-baseline="middle">Increasing tones</text>
    </g>
  </g>

  <!-- Phase labels -->
  <g filter="url(#softShadow)" font-family="'Aptos','Segoe UI','Helvetica Neue',Arial,sans-serif" font-weight="700" fill="#111111">
    <rect x="145" y="390" width="198" height="52" rx="16" fill="#f4f7fc" stroke="#5f7a8f" stroke-width="1.9"/>
    <text x="244" y="422" text-anchor="middle" font-size="23" dominant-baseline="middle">Context Layer</text>

    <rect x="400" y="390" width="198" height="52" rx="16" fill="#f4f7fc" stroke="#5f7a8f" stroke-width="1.9"/>
    <text x="499" y="422" text-anchor="middle" font-size="23" dominant-baseline="middle">Verifiability</text>

    <rect x="655" y="390" width="198" height="52" rx="16" fill="#f4f7fc" stroke="#5f7a8f" stroke-width="1.9"/>
    <text x="754" y="422" text-anchor="middle" font-size="23" dominant-baseline="middle">Framing Layer</text>

    <rect x="1111" y="390" width="198" height="52" rx="16" fill="#f4f7fc" stroke="#5f7a8f" stroke-width="1.9"/>
    <text x="1210" y="422" text-anchor="middle" font-size="23" dominant-baseline="middle">Trigger Layer</text>

    <rect x="1360" y="390" width="230" height="52" rx="16" fill="#f4f7fc" stroke="#5f7a8f" stroke-width="1.9"/>
    <text x="1475" y="422" text-anchor="middle" font-size="23" dominant-baseline="middle">Temporal Layer</text>

    <rect x="1591" y="390" width="260" height="52" rx="16" fill="#f4f7fc" stroke="#5f7a8f" stroke-width="1.9"/>
    <text x="1721" y="422" text-anchor="middle" font-size="20.4" dominant-baseline="middle">Sycophancy Scale</text>
  </g>

  <!-- Theory tags -->
  <g filter="url(#softShadow)" font-family="'Aptos','Segoe UI','Helvetica Neue',Arial,sans-serif" font-weight="800" fill="#111111">
    <rect x="174" y="176" width="132" height="32" rx="16" fill="#e7e1e5" stroke="#a4b3bf" stroke-width="1.6"/>
    <use href="#icon-tag-book" transform="translate(191 192) scale(0.76)"/>
    <text x="205" y="197" font-size="14.5" letter-spacing="1.08" text-anchor="start">OECD FORD</text>

    <rect x="1139" y="176" width="140" height="32" rx="16" fill="#c7d8dd" stroke="#99adb9" stroke-width="1.6"/>
    <use href="#icon-tag-book" transform="translate(1156 192) scale(0.76)"/>
    <text x="1170" y="197" font-size="15" letter-spacing="1.2" text-anchor="start">CIALDINI</text>
  </g>
</svg>
